<svg width="934" height="954" viewBox="0 0 934 954" fill="none" xmlns="http://www.w3.org/2000/svg">
<g clip-path="url(#clip0_6_43)">
<path d="M461.525 246.365C459.255 247.598 458.83 249.344 458.404 258.485L457.837 269.167L450.602 271.016C440.672 273.584 429.606 281.698 426.344 288.888C424.925 291.867 423.223 294.229 422.513 294.229C421.804 294.229 419.96 295.154 418.399 296.284C415.846 298.132 415.562 299.673 415.562 315.183V332.13L411.306 334.287L407.051 336.444L406.767 359.657L406.341 382.87L396.411 385.849C391.02 387.492 385.63 389.546 384.779 390.471C383.36 391.806 382.934 405.261 382.934 449.531V506.844H366.053C356.69 506.844 347.469 507.255 345.483 507.871C343.213 508.488 335.553 514.958 325.481 524.819L309.167 540.739H267.034H224.902L202.062 557.173L179.223 573.607H162.767C150.851 573.607 145.886 574.018 144.751 574.943C143.758 575.867 143.048 584.906 142.907 600.929L142.481 625.477L129.146 625.785C121.769 625.888 114.818 626.607 113.825 627.223C112.407 628.045 111.981 641.911 111.981 697.992C111.981 759.928 112.265 767.734 114.251 769.172C116.237 770.61 150.141 770.815 466.632 770.815C783.122 770.815 817.027 770.61 819.013 769.172C820.999 767.734 821.283 759.928 821.283 697.992C821.283 645.301 820.857 628.148 819.581 627.223C818.446 626.402 813.055 625.991 804.827 625.991H791.634L791.209 601.545C790.925 582.646 790.357 576.586 788.797 575.353C787.236 573.915 783.974 573.607 770.497 573.607H754.041L731.202 557.173L708.362 540.739H666.23H624.097L607.783 524.819C597.711 514.958 590.05 508.488 587.781 507.871C585.795 507.255 576.574 506.844 567.211 506.844H550.33V449.531C550.33 405.261 549.904 391.806 548.627 390.471C547.634 389.546 542.385 387.389 536.853 385.746L526.923 382.767L526.497 359.554L526.213 336.444L521.957 334.287L517.702 332.13V315.183C517.702 299.673 517.418 298.132 514.864 296.284C513.304 295.154 511.46 294.229 510.751 294.229C510.041 294.229 508.339 291.867 506.92 288.888C503.658 281.698 492.592 273.584 482.662 271.016L475.427 269.167L474.86 258.485C474.434 249.344 474.009 247.598 471.739 246.365C470.178 245.544 467.909 244.927 466.632 244.927C465.355 244.927 463.085 245.544 461.525 246.365ZM479.541 282.417C483.939 284.061 492.167 290.942 492.167 292.894C492.167 293.921 486.351 294.229 466.632 294.229C448.332 294.229 441.097 293.921 441.097 292.997C441.097 291.353 447.765 285.191 451.878 283.239C458.83 279.952 471.739 279.541 479.541 282.417ZM501.813 315.696L502.239 325.248L495.43 322.372C480.676 316.107 467.341 310.663 466.632 310.663C466.065 310.663 458.262 313.847 449.041 317.853C439.82 321.756 432.018 325.043 431.734 325.043C430.741 325.043 431.167 306.966 432.16 306.144C432.727 305.836 448.474 305.63 467.199 305.733L501.388 306.041L501.813 315.696ZM489.33 333.363L510.609 342.71V360.068C510.609 369.62 510.183 377.426 509.758 377.426C509.332 377.426 499.827 374.653 488.478 371.264C477.271 367.874 467.483 365.101 466.774 365.101C466.065 365.101 457.269 367.566 447.197 370.647C436.983 373.626 427.337 376.502 425.776 376.913C422.655 377.529 422.655 377.529 422.655 360.171V342.71L443.651 333.465C455.141 328.33 465.213 324.119 466.206 324.119C467.199 324.016 477.555 328.227 489.33 333.363ZM457.127 645.609C455.992 646.328 404.213 654.75 400.809 654.75C398.965 654.75 398.823 636.365 398.965 526.154L399.248 397.558L428.33 388.725L457.411 379.891L457.837 512.391C457.978 585.317 457.695 645.198 457.127 645.609ZM517.702 392.525L534.016 397.558L534.299 526.154C534.441 646.02 534.299 654.75 532.171 654.647C530.895 654.647 517.702 652.696 502.806 650.231L475.853 645.814L475.427 512.699L475.144 379.583L488.195 383.589C495.43 385.746 508.764 389.855 517.702 392.525ZM382.934 529.954V540.739H356.548C334.134 540.739 330.304 540.534 330.872 539.301C331.297 538.48 335.979 533.549 341.369 528.516L351.016 519.17H366.904H382.934V529.954ZM591.895 528.516C597.285 533.549 601.967 538.48 602.392 539.301C602.96 540.534 599.13 540.739 576.716 540.739H550.33V529.954V519.17H566.36H582.248L591.895 528.516ZM382.934 562.822V573.607H292.853C243.344 573.607 202.772 573.299 202.772 572.888C202.772 572.477 209.013 567.547 216.532 562.103L230.434 552.038H306.613H382.934V562.822ZM716.59 562.001C724.25 567.547 730.492 572.375 730.492 572.786C730.492 573.299 689.92 573.607 640.411 573.607H550.33V562.822V552.038H626.509H702.83L716.59 562.001ZM382.934 605.448V625.991H375.132H367.33V620.341C367.33 610.687 361.797 603.805 351.016 600.21C343.497 597.745 336.972 597.745 329.453 600.415C319.523 603.907 315.834 608.324 314.841 617.671L314.132 625.477L307.465 625.785L300.655 626.093V622.19C300.513 611.611 294.697 603.599 284.483 600.21C265.758 594.047 246.748 604.113 246.748 620.341V626.093L240.081 625.785L233.272 625.477L232.846 620.855C232.279 612.227 231.002 609.454 226.037 605.448C216.532 597.847 202.63 596.409 191.139 601.853C183.904 605.345 180.925 609.762 180.074 618.287L179.365 625.477L169.151 625.785L158.795 626.093V605.448V584.906H270.865H382.934V605.448ZM774.469 605.448V626.093L764.255 625.785L753.899 625.477L753.19 618.287C752.339 609.762 749.36 605.345 742.125 601.853C730.634 596.409 716.732 597.847 707.227 605.448C702.262 609.454 700.985 612.227 700.418 620.855L699.992 625.477L693.325 625.785L686.516 626.093V620.341C686.516 610.687 680.983 603.805 670.202 600.21C662.967 597.745 656.157 597.745 648.781 600.21C638.567 603.599 632.75 611.611 632.609 622.19V626.093L625.941 625.785L619.132 625.477L618.423 618.287C617.571 609.659 614.592 605.345 607.074 601.751C588.49 592.815 566.076 602.778 565.934 620.033V625.991H558.132H550.33V605.448V584.906H662.399H774.469V605.448ZM210.432 610.687C214.83 612.227 217.241 616.336 216.674 621.471L216.248 625.477L206.034 625.785L195.679 626.093V620.855C195.679 614.795 197.381 611.919 201.779 610.584C206.034 609.351 206.318 609.351 210.432 610.687ZM279.944 611.714C283.206 613.562 283.632 614.59 283.632 619.931V626.093L273.418 625.785L263.062 625.477L262.637 621.471C261.502 612.022 271.006 606.681 279.944 611.714ZM345.199 610.687C349.597 612.227 352.009 616.336 351.441 621.471L351.016 625.477L340.802 625.785L330.446 626.093V620.855C330.446 614.795 332.148 611.919 336.546 610.584C340.802 609.351 341.085 609.351 345.199 610.687ZM600.406 612.843C601.967 614.281 602.818 616.644 602.818 620.547V626.093L592.604 625.785L582.248 625.477L581.823 621.471C580.971 613.973 586.362 609.043 594.306 610.173C596.292 610.481 598.988 611.611 600.406 612.843ZM664.385 610.687C668.783 612.227 671.195 616.336 670.627 621.471L670.202 625.477L659.988 625.785L649.632 626.093V619.931C649.632 614.59 650.057 613.562 653.32 611.714C657.576 609.249 659.42 609.043 664.385 610.687ZM735.174 612.843C736.734 614.281 737.585 616.644 737.585 620.547V626.093L727.371 625.785L717.016 625.477L716.59 621.471C715.739 613.973 721.13 609.043 729.074 610.173C731.06 610.481 733.755 611.611 735.174 612.843ZM382.934 647.56C382.934 657.318 382.792 657.832 379.813 658.345C353.427 662.556 349.597 663.481 347.895 666.049C346.476 668 346.051 679.709 346.051 714.015V759.517H333.425H320.658L320.232 731.99C319.806 706.209 319.665 704.36 316.686 700.457C309.309 690.494 298.386 685.667 283.49 685.564C266.751 685.564 252.706 693.267 248.167 704.874C247.458 707.031 246.748 719.973 246.748 734.044V759.517H236.818H226.888V732.504C226.888 708.674 226.462 705.079 224.193 701.484C216.106 688.645 197.523 682.585 178.372 686.796C170.853 688.44 161.207 694.808 157.093 700.765C153.972 705.387 153.83 706.723 153.404 732.504L152.837 759.517H140.211H127.586V698.403V637.289H255.26H382.934V647.56ZM805.678 698.403V759.517H793.053H780.427L779.86 732.504C779.434 710.831 778.867 704.874 777.023 701.895C764.255 680.942 723.967 679.915 710.064 700.149C706.376 705.49 706.376 705.49 706.376 732.504V759.517H696.588H686.657L686.232 732.093L685.806 704.566L681.692 699.122C674.741 690.083 664.102 685.564 649.632 685.564C639.134 685.564 632.183 687.515 625.09 692.548C613.741 700.457 613.457 701.176 613.032 731.99L612.606 759.517H599.839H587.213V713.502C587.213 674.368 586.93 667.178 585.085 665.33C583.525 663.686 579.411 662.556 569.197 660.913C561.537 659.68 554.16 658.448 552.883 658.242C550.613 657.729 550.33 656.291 550.33 647.458V637.289H678.004H805.678V698.403ZM519.404 664.713L570.19 672.725V681.661C570.19 688.44 569.764 690.7 568.346 690.7C567.353 690.7 544.088 687.105 516.709 682.688L466.916 674.676L417.548 682.585C390.311 687.002 366.904 690.597 365.627 690.597C363.358 690.7 363.074 689.57 363.074 681.661V672.725L411.732 664.919C438.402 660.605 462.234 657.01 464.504 656.907C466.916 656.804 491.599 660.297 519.404 664.713ZM458.12 723.568V759.517H447.623H436.983L436.558 738.666C436.132 718.535 435.99 717.61 432.727 714.118C423.223 704.052 405.348 702.203 392.581 710.009C384.92 714.734 383.927 717.918 383.218 739.693L382.651 759.517H372.862H363.074V731.271C363.074 715.761 363.216 703.025 363.499 703.025C364.067 702.922 457.411 687.824 457.837 687.721C457.978 687.618 458.12 703.744 458.12 723.568ZM521.957 695.322C544.939 698.917 565.225 702.203 567.069 702.511L570.19 703.025V731.271V759.517H560.26H550.33V742.569C550.33 733.325 549.62 723.362 548.769 720.486C543.804 703.539 514.297 699.738 500.537 714.118C497.274 717.61 497.132 718.535 496.706 738.666L496.281 759.517H485.641H475.144V723.67C475.144 690.083 475.285 687.824 477.697 688.234C478.974 688.44 498.976 691.624 521.957 695.322ZM201.495 699.225C210.716 703.641 211.283 705.696 211.283 734.044V759.517H190.713H170.002L170.427 732.401C170.853 707.031 170.995 705.182 173.69 703.025C181.493 696.554 192.841 695.013 201.495 699.225ZM292.995 698.506C295.548 699.43 299.237 701.895 300.939 703.949C304.06 707.544 304.202 708.674 304.627 733.531L305.053 759.517H283.774H262.353V734.558C262.353 710.728 262.495 709.393 265.616 705.079C270.723 697.581 282.213 694.808 292.995 698.506ZM659.562 698.711C662.825 699.841 665.662 702.101 667.79 705.079C670.769 709.393 670.911 710.728 670.911 734.558V759.517H649.49H628.211L628.637 733.531C629.062 708.777 629.204 707.442 632.325 703.949C637.999 697.273 649.49 695.013 659.562 698.711ZM751.488 698.3C753.616 699.122 756.878 700.971 758.864 702.511L762.411 705.285L762.836 732.401L763.262 759.517H742.55H721.981V734.044C721.981 711.961 722.264 708.263 724.534 705.079C729.357 697.992 742.125 694.808 751.488 698.3ZM417.123 718.329C420.385 720.281 420.527 720.692 420.953 739.899L421.378 759.517H410.739H399.958V740.104V720.589L403.646 718.535C408.327 715.864 412.867 715.761 417.123 718.329ZM529.618 718.535L533.306 720.589V740.104V759.517H522.525H511.885L512.311 739.899C512.737 720.692 512.878 720.281 516.141 718.329C520.397 715.761 524.937 715.864 529.618 718.535Z" fill="white"/>
<path d="M187.025 648.998C183.762 650.128 183.621 650.744 183.195 660.297C182.911 668.616 183.195 670.773 185.181 672.314C188.302 674.882 192.132 674.779 195.679 672.211C198.09 670.465 198.516 668.822 198.516 661.118C198.516 651.977 197.381 649.512 192.7 648.279C191.423 647.971 188.869 648.279 187.025 648.998Z" fill="white"/>
<path d="M278.667 650.128C275.404 652.388 275.12 653.415 275.12 661.426C275.12 668.822 275.546 670.465 277.958 672.211C279.518 673.341 282.072 674.265 283.49 674.265C290.016 674.265 292.995 668.411 291.86 657.626C291.293 652.696 290.583 650.95 288.03 649.512C283.774 646.944 282.781 647.047 278.667 650.128Z" fill="white"/>
<path d="M645.235 649.512C642.681 650.95 641.972 652.696 641.404 657.626C640.269 668.411 643.248 674.265 649.774 674.265C651.193 674.265 653.746 673.341 655.307 672.211C657.718 670.465 658.144 668.822 658.144 661.426C658.144 653.415 657.86 652.388 654.597 650.128C650.483 647.047 649.49 646.944 645.235 649.512Z" fill="white"/>
<path d="M740.423 648.382C735.883 649.307 734.749 652.08 734.749 661.118C734.749 668.822 735.174 670.465 737.586 672.211C741.132 674.779 744.962 674.882 747.942 672.417C750.921 670.054 751.488 651.463 748.651 649.923C745.956 648.382 742.835 647.766 740.423 648.382Z" fill="white"/>
<path d="M855.846 397.174C850.22 399.152 842.768 404.057 834.785 411.099C831.82 413.789 829.159 415.926 828.931 415.926C827.866 415.926 828.626 411.574 830.375 408.013C831.44 405.798 832.048 404.057 831.82 404.057C831.516 404.057 829.615 405.165 827.562 406.51C821.86 410.308 817.374 416.242 812.888 425.816C808.326 435.469 807.565 435.548 807.565 426.449C807.565 422.651 807.413 421.781 806.653 422.414C803.156 425.42 797.149 441.72 794.64 454.696C792.891 464.19 792.739 464.507 791.751 463.478C791.219 462.924 790.306 460.867 789.622 458.889L788.481 455.25L786.809 461.105C784.908 467.672 782.855 479.145 782.855 482.943C782.855 485.395 782.855 485.395 776.544 478.986C770.766 473.052 760.197 465.536 756.168 464.428C754.799 464.032 754.799 464.111 756.32 467.672C758.905 473.843 758.068 474.16 751.302 469.413C739.897 461.5 728.568 456.278 722.637 456.278H719.444L722.181 459.206C724.842 462.212 726.971 465.615 726.439 466.248C726.287 466.406 724.082 465.694 721.649 464.586C712.297 460.709 700.436 460.076 693.137 463.083L689.791 464.507L694.125 466.01C696.558 466.802 698.839 468.147 699.219 468.938C699.904 470.283 699.676 470.52 697.547 470.837C687.815 472.498 681.276 473.923 677.094 475.347C671.316 477.325 664.093 481.202 662.268 483.259C660.975 484.683 661.051 484.762 664.473 484.762C670.783 484.762 670.631 485.395 663.636 490.301C655.729 495.919 646.833 504.227 643.716 508.895C642.423 510.794 641.435 512.455 641.435 512.693C641.435 512.851 645.084 511.11 649.57 508.737C658.542 504.147 668.046 500.587 671.316 500.587C673.064 500.587 673.292 500.824 672.76 501.932C672.38 502.723 671.772 504.78 671.544 506.442C670.859 510.002 670.479 510.161 678.387 503.514C683.785 499.004 693.745 493.703 698.383 492.991L701.653 492.437L700.512 494.732C697.623 500.666 697.775 500.745 705.834 497.026C713.97 493.228 720.889 491.092 724.994 491.092H727.656L725.299 493.624C723.322 495.919 721.269 499.084 721.269 499.954C721.269 500.112 724.234 499.637 727.96 498.846C735.335 497.185 753.43 496.077 756.016 497.185L757.688 497.818L755.635 500.429C754.115 502.328 752.29 503.356 748.64 504.464C745.903 505.255 742.33 506.521 740.657 507.312C737.692 508.657 737.692 508.737 739.517 509.29C742.254 510.082 746.588 512.534 746.131 512.93C745.979 513.167 742.026 514.354 737.388 515.62C726.971 518.469 718.836 521.95 713.59 525.748C708.039 529.783 707.963 530.653 713.285 530.653C715.642 530.653 718.228 531.049 719.064 531.445C720.356 532.236 719.9 532.632 715.186 535.163C706.214 539.99 697.167 550.039 695.038 557.476L694.505 559.296L697.851 557.239C700.816 555.498 705.302 554.469 705.302 555.577C705.302 555.735 703.401 558.979 701.044 562.698C693.973 574.013 689.335 586.039 689.335 593.16V595.93L692.301 592.369C693.897 590.391 695.494 589.046 695.798 589.283C696.026 589.6 695.874 592.844 695.342 596.404C694.125 605.266 694.277 621.882 695.57 626.313L696.558 629.794L699.067 620.537C701.729 610.488 705.226 600.993 707.507 597.987L708.952 596.088L710.092 598.382C710.7 599.648 711.917 601.389 712.829 602.18L714.426 603.684V598.936C714.426 591.974 716.479 580.817 718.76 575.595C721.573 569.028 722.181 568.791 724.234 573.142L725.983 576.861L728.416 569.028C731.153 560.245 734.803 552.333 737.008 550.276C738.452 548.931 738.452 549.01 739.365 553.599C739.897 556.21 740.581 558.346 740.961 558.346C741.265 558.346 743.014 555.735 744.839 552.57C749.477 544.5 755.407 536.35 759.513 532.394C763.315 528.834 764.683 528.201 764.075 530.495C763.923 531.286 764.227 533.106 764.759 534.451L765.748 536.983L770.766 530.812C776.848 523.295 782.171 518.548 783.843 519.26C785.212 519.735 785.44 520.842 787.037 531.682C790.686 557.555 788.405 591.103 781.03 620.458C768.181 671.254 741.189 717.145 699.219 759.634C687.891 771.107 687.663 771.344 690.552 770.87C692.224 770.632 700.36 770.158 708.724 769.92L723.93 769.366L726.211 766.439C749.553 736.293 756.548 727.194 759.589 722.605L763.315 717.225L761.11 715.405C759.893 714.455 758.068 712.873 757.004 712.003L755.103 710.341L759.817 710.262H764.455L769.777 700.925C772.743 695.862 776.088 689.611 777.305 687.079L779.434 682.411L776.772 680.195L774.111 677.901L776.392 677.822C777.685 677.822 779.053 677.505 779.586 677.189C781.03 676.239 786.276 664.608 788.405 657.645C791.523 647.518 791.523 647.359 789.09 646.173L787.037 645.223L789.394 644.036C791.523 642.928 792.055 641.9 794.108 635.016C795.4 630.744 796.921 624.889 797.453 622.04C798.29 616.897 798.29 616.66 796.617 615.394L794.944 614.049L796.769 613.178C798.366 612.387 798.822 611.359 799.506 606.928C800.799 599.332 801.483 588.413 800.647 588.413C800.266 588.413 799.43 588.096 798.898 587.701C797.985 587.068 798.061 586.672 799.658 585.406C801.407 583.903 801.483 583.349 801.711 573.063L802.015 562.303L799.886 561.511C797.909 560.72 797.909 560.641 799.202 559.138C800.494 557.634 800.494 556.764 799.658 546.399C799.202 540.227 798.898 535.005 799.126 534.847C799.43 534.451 806.425 545.687 806.425 546.636C806.425 546.953 806.729 547.269 807.109 547.269C807.87 547.269 809.694 542.997 809.694 541.256C809.694 535.48 819.807 551.858 825.889 567.445L828.322 573.775L829.919 570.215C830.755 568.237 831.516 565.863 831.516 564.834C831.516 562.065 832.96 563.489 835.013 568.316C836.686 572.351 839.499 584.932 840.031 590.787L840.259 593.556L842.692 590.154L845.125 586.751L846.19 588.967C848.775 594.189 849.839 608.352 848.319 617.926C848.015 619.983 847.939 621.645 848.243 621.645C848.471 621.645 849.839 620.379 851.284 618.875C852.729 617.372 854.097 616.106 854.401 616.106C855.998 616.106 859.496 632.01 860.864 645.302C861.32 650.366 861.396 650.366 862.461 648.309C864.97 643.324 866.643 633.829 867.023 622.198C867.251 615.789 867.783 610.567 868.163 610.567C868.467 610.567 869.836 612.229 871.052 614.286C873.866 618.875 874.474 617.767 873.942 608.748C873.485 601.626 869.836 588.967 865.73 580.58L863.449 575.753H865.274C866.262 575.753 868.695 577.019 870.672 578.602L874.246 581.371L873.714 578.76C872.877 574.25 868.163 564.993 864.59 560.957C862.765 558.742 859.343 555.656 857.062 553.995C854.705 552.333 853.033 550.671 853.261 550.355C853.793 549.406 859.876 549.485 862.233 550.434C865.578 551.7 864.59 549.643 859.343 544.421C855.618 540.781 852.196 538.407 844.745 534.451C839.347 531.603 833.721 528.913 832.276 528.359L829.615 527.33L831.896 526.302C833.188 525.748 835.393 524.957 836.838 524.561L839.499 523.849L832.2 519.972C826.269 516.807 824.673 515.62 823.38 513.088L821.784 510.082H826.193C831.364 510.082 842.388 512.851 850.828 516.332C854.173 517.598 857.062 518.627 857.215 518.389C857.747 517.836 856.606 515.066 854.629 512.06C853.565 510.398 852.881 508.974 853.033 508.816C853.185 508.657 855.162 509.053 857.443 509.765C862.157 511.189 867.859 514.354 874.702 519.26C879.264 522.583 879.416 522.662 879.416 520.763C879.416 519.735 879.112 517.994 878.656 516.886C877.667 514.196 878.96 514.196 884.358 516.886C889.376 519.497 896.523 525.669 901.617 531.84L905.419 536.509L905.115 531.603C904.887 526.064 904.659 526.143 911.197 529.15C914.695 530.733 925.948 538.091 930.586 541.889C932.182 543.234 933.627 544.104 933.855 543.867C935.452 542.285 923.515 525.748 914.999 517.677C909.145 512.06 909.221 511.506 916.14 513.167C919.865 514.117 919.713 513.167 915.455 508.816C911.273 504.701 900.021 498.688 890.213 495.365C886.563 494.178 883.446 493.07 883.294 492.912C882.457 492.279 885.27 490.301 887.703 489.905C889.224 489.589 891.125 489.114 891.961 488.798C893.33 488.244 893.102 487.927 890.289 486.424C881.773 481.993 868.771 481.123 858.659 484.446C856.15 485.237 859.267 480.252 862.841 477.879L865.958 475.663L863.449 475.189C857.823 474.002 844.669 477.483 831.972 483.496C828.626 485.079 825.813 486.266 825.661 486.107C825.509 485.949 826.421 483.813 827.638 481.36L829.843 477.008L824.749 478.828C822.012 479.778 818.134 481.36 816.233 482.23C812.736 483.813 806.425 483.892 806.425 482.389C806.425 482.072 807.87 479.699 809.694 477.167C813.268 472.182 819.427 465.931 826.878 459.839C829.463 457.782 831.516 455.803 831.516 455.487C831.516 454.696 828.626 453.905 825.661 453.905C824.293 453.905 823.152 453.588 823.152 453.272C823.152 451.135 833.949 443.46 841.704 440.058C844.441 438.871 846.494 437.526 846.266 437.131C845.962 436.656 844.593 435.785 843.073 435.152L840.411 433.966L842.616 432.067C847.787 427.636 860.256 423.126 867.783 423.047L870.672 422.968L867.327 419.803L863.905 416.638L866.186 414.739C869.076 412.207 879.036 406.827 886.487 403.583C892.95 400.813 892.874 400.418 885.499 399.547C880.632 399.073 870.064 400.418 862.689 402.554C859.952 403.345 857.595 403.82 857.443 403.662C857.291 403.424 858.431 401.763 859.952 399.785C861.472 397.886 862.689 396.066 862.689 395.829C862.689 395.037 860.94 395.354 855.846 397.174Z" fill="white"/>
<path d="M73.9717 398.613C77.0226 402.255 77.4039 403.522 75.4209 402.889C62.3022 398.929 47.5819 397.583 43.2344 400.038C42.4717 400.434 43.0819 400.909 45.1412 401.622C50.5565 403.443 63.2938 410.095 67.031 413.104L70.6921 416.034L67.5649 418.33C64.0565 420.943 64.1327 422.21 67.87 422.21C74.4294 422.21 88.9972 427.912 92.3531 431.712C93.5734 433.138 93.4972 433.296 90.4463 434.88L87.2429 436.543L95.5565 440.819C100.514 443.353 105.548 446.6 107.989 448.896L112.107 452.697L108.065 453.251C105.853 453.489 103.718 454.043 103.336 454.439C102.955 454.835 104.556 456.656 107.073 458.636C116.379 466.238 127.819 478.828 127.819 481.6C127.819 481.917 126.37 482.392 124.692 482.708C122.099 483.104 120.421 482.788 115.311 480.491C111.955 478.987 108.218 477.482 106.997 477.245L104.938 476.69L106.921 480.729C108.065 482.946 108.751 485.005 108.523 485.322C108.218 485.559 105.319 484.53 102.116 482.946C91.209 477.641 83.1243 475.186 75.1921 474.711L67.9463 474.315L71.1497 476.769C74.2768 479.145 77.2514 482.867 76.5649 483.579C76.4124 483.817 73.8192 483.421 70.9209 482.788C61.2344 480.65 52.6158 481.521 44.6836 485.401L40.4887 487.46L44.6073 488.41C48.2683 489.281 51.7005 491.34 50.709 492.132C50.5565 492.29 47.1243 493.557 43.1581 494.982C32.0988 498.862 23.709 503.455 18.8276 508.286L14.5564 512.482L19.5141 512.007L24.4717 511.532L18.37 517.709C8.98863 527.211 2.50557 535.842 0.446249 541.465C-0.469006 543.84 -0.850362 544.078 8.37846 537.268C14.8615 532.437 26.3022 525.944 28.209 525.944C28.8954 525.944 29.048 527.37 28.8192 530.854L28.4378 535.842L32.0988 531.25C38.3531 523.252 50.4039 514.066 54.6751 514.066C55.8192 514.066 55.8954 514.462 55.209 517.234C54.7514 519.055 54.5988 520.639 54.7514 520.797C54.9802 521.035 57.4971 519.609 60.3954 517.55C68.7853 511.691 79.7683 506.623 81.065 507.969C81.2175 508.206 80.5311 509.711 79.5395 511.453C78.4717 513.116 77.4039 515.254 77.0988 516.204L76.6412 518.026L81.8277 515.967C94.4887 510.978 107.302 508.048 111.497 509.236C113.328 509.711 113.404 509.869 112.184 510.899C111.497 511.532 110.582 512.72 110.277 513.67C109.895 514.621 106.768 516.838 102.192 519.213L94.6412 523.173L98.7599 524.123C104.023 525.311 105.09 526.34 102.192 527.607C85.9463 534.655 73.2853 542.89 70.5395 548.195C69.9294 549.542 70.2344 549.542 75.1158 549.146C77.9378 548.908 80.5311 548.987 80.7599 549.383C80.9887 549.779 78.9294 551.917 76.1836 554.055C68.0988 560.39 62.6073 568.942 60.3954 578.603L59.7853 580.979L61.9971 578.841C64.7429 576.148 68.2514 574.248 69.548 574.802C70.387 575.119 70.387 575.594 69.4717 577.494C66.8785 582.642 62.7599 594.044 61.387 599.983C59.9378 606.477 59.4802 615.029 60.548 615.741C60.9293 615.979 62.3785 614.474 63.8277 612.416L66.4209 608.694L66.8785 619.78C67.4124 631.579 69.0904 641.714 71.3022 646.149L72.6751 648.841L73.5904 640.685C74.6582 631.104 76.9463 620.334 78.6243 617.008L79.7683 614.712L82.7429 617.959L85.6412 621.284L85.2599 609.802C85.0311 600.854 85.1836 597.291 86.1751 593.332C87.9294 586.126 88.6921 585.413 90.9802 588.897C91.9717 590.402 93.0395 591.669 93.3446 591.669C93.6497 591.669 94.3362 588.501 94.87 584.7C95.9378 576.465 98.1497 568.626 100.438 564.745L102.116 561.974L103.031 565.537C103.489 567.517 104.328 569.972 104.862 570.922C105.777 572.664 106.006 572.268 109.133 564.508C113.099 554.372 117.218 546.533 120.726 542.494C123.777 538.931 124.768 538.693 124.768 541.148C124.845 542.177 125.302 543.761 125.836 544.79C126.751 546.612 126.904 546.453 130.946 539.881C133.158 536.159 135.218 533.071 135.446 533.071C135.675 533.071 135.37 538.456 134.76 545.107C133.692 556.985 133.692 557.144 135.294 558.49C137.048 559.915 136.743 560.786 134.607 560.786C132.396 560.786 131.862 566.725 132.929 578.445C133.311 583.117 133.616 583.988 135.218 584.78C137.506 585.809 137.429 586.601 134.989 587.234C132.929 587.789 132.929 587.868 133.387 593.49C133.692 596.658 134.302 601.963 134.76 605.368C135.599 611.307 135.751 611.703 137.963 612.416L140.251 613.287L138.192 614.395C137.124 614.95 136.209 616.137 136.209 617.008C136.209 619.067 140.48 636.171 141.853 639.576C142.616 641.398 143.836 642.744 145.362 643.457L147.802 644.486L145.514 645.436L143.226 646.466L144.294 650.979C146.048 658.74 152.76 675.21 154.819 676.556C155.277 676.873 156.726 677.19 157.946 677.19L160.235 677.269L157.641 679.566L154.972 681.941L157.794 687.643C159.396 690.81 162.751 697.066 165.421 701.5L170.15 709.656H175.107H179.989L175.718 712.982C171.828 715.912 171.446 716.387 172.209 717.892C173.963 721.297 189.751 742.281 204.396 760.652L211.26 769.204L215.531 768.729C219.574 768.254 237.497 769.284 244.057 770.392L247.031 770.867L240.701 764.612C200.735 725.335 175.412 686.771 159.472 641.002C147.268 606.16 142.387 561.578 147.268 529.903C148.794 520.243 149.48 518.026 151.006 518.026C152.531 518.026 160.845 526.103 165.192 531.804C168.853 536.555 169.768 536.476 169.768 531.25C169.768 529.666 170.074 528.32 170.379 528.32C173.658 528.32 184.565 542.019 191.124 554.214C192.116 556.114 193.184 557.619 193.489 557.619C194.251 557.619 194.938 554.53 194.938 550.65C194.938 548.829 195.319 547.324 195.701 547.324C197.989 547.324 205.692 563.795 207.523 572.426C208.209 575.832 208.896 575.673 210.65 571.793L212.023 568.546L213.777 570.764C216.751 574.565 219.345 584.7 219.955 594.44L220.489 603.151L223.082 599.429C224.531 597.37 225.98 595.866 226.362 596.103C228.268 597.37 233.684 611.703 237.421 625.719L238.184 628.49L239.023 624.294C240.243 618.75 240.09 602.359 238.87 594.44C238.26 590.956 237.955 587.947 238.184 587.709C238.336 587.472 239.862 588.818 241.54 590.719C243.218 592.54 244.743 594.044 245.048 594.044C245.735 594.044 244.59 586.363 243.294 582.246C241.616 577.098 236.582 566.883 232.54 560.549C229.87 556.431 229.26 554.926 229.946 554.214C230.633 553.501 231.929 553.818 235.362 555.718C239.709 558.094 239.785 558.094 239.099 556.352C235.972 547.72 228.955 539.881 219.879 534.971C214.845 532.279 214.082 531.566 215.074 530.775C215.76 530.22 218.277 529.824 220.946 529.824H225.675L223.158 527.132C221.785 525.627 218.201 523.252 215.226 521.747C209.811 518.976 197.074 514.621 191.658 513.591C190.133 513.354 188.607 512.799 188.455 512.403C187.921 511.611 190.819 509.553 193.641 508.919C194.785 508.602 195.701 508.048 195.701 507.731C195.701 507.098 184.26 502.98 182.582 502.98C182.048 502.98 180.294 501.555 178.768 499.813L175.946 496.724L178.768 496.091C184.489 494.824 193.184 495.537 211.336 498.862L213.548 499.258L212.175 496.962C211.413 495.695 209.887 493.636 208.743 492.369L206.76 490.073L211.336 490.548C216.599 491.023 221.099 492.528 229.184 496.328C232.311 497.833 234.98 498.862 235.209 498.625C235.438 498.387 235.057 496.804 234.37 495.062C233.226 491.894 233.226 491.894 234.98 491.894C239.633 491.894 251.913 498.625 260.379 505.831L262.819 507.969V505.91C262.819 504.801 262.438 502.901 262.057 501.713C261.599 500.525 261.37 499.496 261.523 499.338C262.362 498.387 274.87 502.822 283.031 506.86C288.294 509.473 292.565 511.295 292.565 510.899C292.565 509.553 286.616 502.505 282.116 498.467C279.599 496.17 274.565 492.211 270.98 489.677C267.319 487.064 264.574 484.767 264.879 484.451C265.107 484.213 267.243 483.975 269.607 483.975L273.879 483.896L271.591 481.917C266.48 477.403 252.065 472.177 240.853 470.831C238.336 470.593 235.819 470.039 235.285 469.643C233.684 468.613 235.972 466.634 240.701 464.971L244.667 463.545L240.624 462.12C233.913 459.744 223.692 460.14 215.15 463.149C211.413 464.496 208.209 465.525 208.057 465.367C207.446 464.812 209.658 460.774 212.099 458.319L214.845 455.468H212.251C206.226 455.468 194.862 460.615 183.497 468.455C179.989 470.91 177.014 472.731 176.785 472.493C176.251 472.018 178.082 465.683 179.074 464.337C180.218 462.912 179.302 463.149 174.879 465.446C168.167 469.009 161.989 473.681 156.726 479.303L151.616 484.688L151.158 479.383C150.624 473.998 147.268 458.398 146.124 456.26C145.667 455.468 145.285 456.023 144.675 458.319C144.218 460.061 143.379 462.12 142.768 462.991C141.777 464.416 141.701 464.416 141.319 462.912C141.09 462.12 140.328 458.398 139.641 454.677C137.277 442.244 132.167 427.832 128.277 422.606C127.209 421.102 127.133 421.26 127.057 425.378C126.98 427.753 126.599 430.762 126.065 432.029L125.073 434.326L122.938 428.545C118.895 417.855 111.497 408.194 104.48 404.552L102.116 403.285L103.946 406.927C104.862 408.986 105.701 411.837 105.701 413.262V415.954L99.4463 410.491C88.4633 400.988 78.8531 395.287 73.8192 395.287H71.226L73.9717 398.613Z" fill="white"/>
<path d="M253.46 308.757L272.871 326.452L290.076 306.477L310.11 323.847L326.182 303.709L285.718 238.411L253.46 308.757Z" fill="#D9D9D9"/>
<path d="M410.28 153.3L429.692 175.663L450.858 149.88L477.683 176.965L490.869 145.863L446.047 48.9202L410.28 153.3Z" fill="#D9D9D9"/>
<path d="M615.092 302.786L634.503 325.149L655.669 299.42L682.494 326.451L695.681 295.349L650.859 198.46L615.092 302.786Z" fill="#D9D9D9"/>
<path fill-rule="evenodd" clip-rule="evenodd" d="M449.277 29.0007C452.949 28.9573 456.271 31.0853 457.635 34.3556L585.28 340.269L645.312 186.729C646.613 183.403 649.928 181.2 653.632 181.2C657.336 181.2 660.651 183.403 661.951 186.729L822.11 596.377L805.471 602.361L653.631 213.992L593.869 366.842C592.581 370.136 589.315 372.333 585.647 372.371C581.979 372.41 578.664 370.283 577.301 367.016L449.69 61.1856L346.791 326.545C345.598 329.621 342.67 331.767 339.262 332.062C335.853 332.357 332.572 330.749 330.824 327.927L286.898 257.002L128.316 602.8L112.049 595.938L277.585 234.979C278.925 232.057 281.856 230.098 285.178 229.904C288.501 229.71 291.657 231.313 293.357 234.058L336.613 303.9L441.058 34.5513C442.338 31.2498 445.604 29.044 449.277 29.0007Z" fill="white"/>
<path d="M9.11426 898V818H66.7705V835.5H30.833V849.25H63.8018V866.75H30.833V880.5H66.6143V898H9.11426ZM96.4482 838L105.198 856.594L114.417 838H135.823L119.729 868L136.604 898H115.354L105.198 878.938L95.3545 898H73.792L90.8232 868L74.8857 838H96.4482ZM143.489 920.5V838H164.896V848.469H165.364C166.146 846.437 167.291 844.576 168.802 842.883C170.312 841.164 172.187 839.797 174.427 838.781C176.666 837.74 179.271 837.219 182.239 837.219C186.198 837.219 189.961 838.273 193.528 840.383C197.122 842.492 200.039 845.812 202.278 850.344C204.544 854.875 205.677 860.76 205.677 868C205.677 874.927 204.596 880.669 202.435 885.227C200.299 889.784 197.435 893.182 193.841 895.422C190.273 897.661 186.354 898.781 182.083 898.781C179.271 898.781 176.757 898.326 174.544 897.414C172.356 896.477 170.481 895.214 168.919 893.625C167.382 892.01 166.198 890.187 165.364 888.156H165.052V920.5H143.489ZM164.583 868C164.583 870.917 164.961 873.443 165.716 875.578C166.497 877.687 167.591 879.328 168.997 880.5C170.429 881.646 172.135 882.219 174.114 882.219C176.093 882.219 177.773 881.659 179.153 880.539C180.56 879.393 181.627 877.766 182.356 875.656C183.112 873.521 183.489 870.969 183.489 868C183.489 865.031 183.112 862.492 182.356 860.383C181.627 858.247 180.56 856.62 179.153 855.5C177.773 854.354 176.093 853.781 174.114 853.781C172.135 853.781 170.429 854.354 168.997 855.5C167.591 856.62 166.497 858.247 165.716 860.383C164.961 862.492 164.583 865.031 164.583 868ZM236.272 818V898H214.71V818H236.272ZM276.165 899.094C269.655 899.094 264.082 897.805 259.446 895.227C254.811 892.622 251.256 889.003 248.782 884.367C246.308 879.706 245.071 874.302 245.071 868.156C245.071 862.01 246.308 856.62 248.782 851.984C251.256 847.323 254.811 843.703 259.446 841.125C264.082 838.521 269.655 837.219 276.165 837.219C282.675 837.219 288.248 838.521 292.884 841.125C297.519 843.703 301.074 847.323 303.548 851.984C306.022 856.62 307.259 862.01 307.259 868.156C307.259 874.302 306.022 879.706 303.548 884.367C301.074 889.003 297.519 892.622 292.884 895.227C288.248 897.805 282.675 899.094 276.165 899.094ZM276.321 883.156C278.144 883.156 279.72 882.544 281.048 881.32C282.376 880.096 283.405 878.352 284.134 876.086C284.863 873.82 285.228 871.125 285.228 868C285.228 864.849 284.863 862.154 284.134 859.914C283.405 857.648 282.376 855.904 281.048 854.68C279.72 853.456 278.144 852.844 276.321 852.844C274.394 852.844 272.741 853.456 271.36 854.68C269.98 855.904 268.925 857.648 268.196 859.914C267.467 862.154 267.103 864.849 267.103 868C267.103 871.125 267.467 873.82 268.196 876.086C268.925 878.352 269.98 880.096 271.36 881.32C272.741 882.544 274.394 883.156 276.321 883.156ZM316.009 898V838H336.946V849.406H337.571C338.665 845.187 340.397 842.102 342.767 840.148C345.162 838.195 347.962 837.219 351.165 837.219C352.103 837.219 353.027 837.297 353.938 837.453C354.876 837.583 355.774 837.779 356.634 838.039V856.438C355.566 856.073 354.251 855.799 352.688 855.617C351.126 855.435 349.785 855.344 348.665 855.344C346.556 855.344 344.655 855.826 342.962 856.789C341.295 857.727 339.98 859.055 339.017 860.773C338.053 862.466 337.571 864.458 337.571 866.75V898H316.009ZM389.017 899.094C382.61 899.094 377.09 897.87 372.454 895.422C367.845 892.948 364.29 889.406 361.79 884.797C359.316 880.161 358.079 874.615 358.079 868.156C358.079 861.958 359.329 856.542 361.829 851.906C364.329 847.271 367.858 843.664 372.415 841.086C376.972 838.508 382.35 837.219 388.548 837.219C393.079 837.219 397.181 837.922 400.853 839.328C404.524 840.734 407.662 842.779 410.267 845.461C412.871 848.117 414.876 851.346 416.282 855.148C417.688 858.951 418.392 863.234 418.392 868V873H364.798V861.125H398.548C398.522 859.406 398.079 857.896 397.22 856.594C396.386 855.266 395.254 854.237 393.821 853.508C392.415 852.753 390.813 852.375 389.017 852.375C387.272 852.375 385.67 852.753 384.212 853.508C382.754 854.237 381.582 855.253 380.696 856.555C379.837 857.857 379.381 859.38 379.329 861.125V873.938C379.329 875.865 379.733 877.583 380.54 879.094C381.347 880.604 382.506 881.789 384.017 882.648C385.527 883.508 387.35 883.938 389.485 883.938C390.97 883.938 392.324 883.729 393.548 883.312C394.798 882.896 395.866 882.297 396.751 881.516C397.636 880.708 398.287 879.745 398.704 878.625H418.392C417.715 882.792 416.113 886.411 413.587 889.484C411.061 892.531 407.715 894.901 403.548 896.594C399.407 898.26 394.563 899.094 389.017 899.094ZM448.792 818H475.823L494.417 863.313H495.354L513.948 818H540.979V898H519.729V851.75H519.104L501.292 897.375H488.479L470.667 851.437H470.042V898H448.792V818ZM580.491 899.094C573.981 899.094 568.408 897.805 563.772 895.227C559.137 892.622 555.582 889.003 553.108 884.367C550.634 879.706 549.397 874.302 549.397 868.156C549.397 862.01 550.634 856.62 553.108 851.984C555.582 847.323 559.137 843.703 563.772 841.125C568.408 838.521 573.981 837.219 580.491 837.219C587.002 837.219 592.575 838.521 597.21 841.125C601.845 843.703 605.4 847.323 607.874 851.984C610.348 856.62 611.585 862.01 611.585 868.156C611.585 874.302 610.348 879.706 607.874 884.367C605.4 889.003 601.845 892.622 597.21 895.227C592.575 897.805 587.002 899.094 580.491 899.094ZM580.647 883.156C582.47 883.156 584.046 882.544 585.374 881.32C586.702 880.096 587.731 878.352 588.46 876.086C589.189 873.82 589.554 871.125 589.554 868C589.554 864.849 589.189 862.154 588.46 859.914C587.731 857.648 586.702 855.904 585.374 854.68C584.046 853.456 582.47 852.844 580.647 852.844C578.72 852.844 577.067 853.456 575.687 854.68C574.306 855.904 573.252 857.648 572.522 859.914C571.793 862.154 571.429 864.849 571.429 868C571.429 871.125 571.793 873.82 572.522 876.086C573.252 878.352 574.306 880.096 575.687 881.32C577.067 882.544 578.72 883.156 580.647 883.156ZM620.335 898V838H641.272V849.406H641.897C642.991 845.187 644.723 842.102 647.093 840.148C649.489 838.195 652.288 837.219 655.491 837.219C656.429 837.219 657.353 837.297 658.265 837.453C659.202 837.583 660.101 837.779 660.96 838.039V856.438C659.892 856.073 658.577 855.799 657.015 855.617C655.452 855.435 654.111 855.344 652.991 855.344C650.882 855.344 648.981 855.826 647.288 856.789C645.621 857.727 644.306 859.055 643.343 860.773C642.379 862.466 641.897 864.458 641.897 866.75V898H620.335ZM693.499 899.094C686.989 899.094 681.416 897.805 676.78 895.227C672.145 892.622 668.59 889.003 666.116 884.367C663.642 879.706 662.405 874.302 662.405 868.156C662.405 862.01 663.642 856.62 666.116 851.984C668.59 847.323 672.145 843.703 676.78 841.125C681.416 838.521 686.989 837.219 693.499 837.219C700.009 837.219 705.582 838.521 710.218 841.125C714.853 843.703 718.408 847.323 720.882 851.984C723.356 856.62 724.593 862.01 724.593 868.156C724.593 874.302 723.356 879.706 720.882 884.367C718.408 889.003 714.853 892.622 710.218 895.227C705.582 897.805 700.009 899.094 693.499 899.094ZM693.655 883.156C695.478 883.156 697.054 882.544 698.382 881.32C699.71 880.096 700.739 878.352 701.468 876.086C702.197 873.82 702.562 871.125 702.562 868C702.562 864.849 702.197 862.154 701.468 859.914C700.739 857.648 699.71 855.904 698.382 854.68C697.054 853.456 695.478 852.844 693.655 852.844C691.728 852.844 690.075 853.456 688.694 854.68C687.314 855.904 686.259 857.648 685.53 859.914C684.801 862.154 684.437 864.849 684.437 868C684.437 871.125 684.801 873.82 685.53 876.086C686.259 878.352 687.314 880.096 688.694 881.32C690.075 882.544 691.728 883.156 693.655 883.156ZM762.249 899.094C755.739 899.094 750.166 897.805 745.53 895.227C740.895 892.622 737.34 889.003 734.866 884.367C732.392 879.706 731.155 874.302 731.155 868.156C731.155 862.01 732.392 856.62 734.866 851.984C737.34 847.323 740.895 843.703 745.53 841.125C750.166 838.521 755.739 837.219 762.249 837.219C768.134 837.219 773.226 838.286 777.522 840.422C781.845 842.531 785.192 845.526 787.562 849.406C789.931 853.26 791.129 857.792 791.155 863H771.155C770.869 859.849 769.957 857.453 768.421 855.812C766.91 854.146 764.957 853.312 762.562 853.312C760.687 853.312 759.046 853.859 757.64 854.953C756.233 856.021 755.14 857.648 754.358 859.836C753.577 861.997 753.187 864.719 753.187 868C753.187 871.281 753.577 874.016 754.358 876.203C755.14 878.365 756.233 879.992 757.64 881.086C759.046 882.154 760.687 882.687 762.562 882.687C764.15 882.687 765.556 882.323 766.78 881.594C768.004 880.839 768.994 879.745 769.749 878.312C770.53 876.854 770.999 875.083 771.155 873H791.155C791.077 878.286 789.866 882.896 787.522 886.828C785.179 890.734 781.858 893.755 777.562 895.891C773.291 898.026 768.187 899.094 762.249 899.094ZM828.958 899.094C822.448 899.094 816.875 897.805 812.239 895.227C807.604 892.622 804.049 889.003 801.575 884.367C799.101 879.706 797.864 874.302 797.864 868.156C797.864 862.01 799.101 856.62 801.575 851.984C804.049 847.323 807.604 843.703 812.239 841.125C816.875 838.521 822.448 837.219 828.958 837.219C834.843 837.219 839.935 838.286 844.231 840.422C848.554 842.531 851.901 845.526 854.271 849.406C856.64 853.26 857.838 857.792 857.864 863H837.864C837.578 859.849 836.666 857.453 835.13 855.812C833.619 854.146 831.666 853.312 829.271 853.312C827.396 853.312 825.755 853.859 824.349 854.953C822.942 856.021 821.849 857.648 821.067 859.836C820.286 861.997 819.896 864.719 819.896 868C819.896 871.281 820.286 874.016 821.067 876.203C821.849 878.365 822.942 879.992 824.349 881.086C825.755 882.154 827.396 882.687 829.271 882.687C830.859 882.687 832.265 882.323 833.489 881.594C834.713 880.839 835.703 879.745 836.458 878.312C837.239 876.854 837.708 875.083 837.864 873H857.864C857.786 878.286 856.575 882.896 854.231 886.828C851.888 890.734 848.567 893.755 844.271 895.891C840 898.026 834.896 899.094 828.958 899.094ZM895.667 899.094C889.157 899.094 883.584 897.805 878.948 895.227C874.313 892.622 870.758 889.003 868.284 884.367C865.81 879.706 864.573 874.302 864.573 868.156C864.573 862.01 865.81 856.62 868.284 851.984C870.758 847.323 874.313 843.703 878.948 841.125C883.584 838.521 889.157 837.219 895.667 837.219C902.177 837.219 907.75 838.521 912.386 841.125C917.021 843.703 920.576 847.323 923.05 851.984C925.524 856.62 926.761 862.01 926.761 868.156C926.761 874.302 925.524 879.706 923.05 884.367C920.576 889.003 917.021 892.622 912.386 895.227C907.75 897.805 902.177 899.094 895.667 899.094ZM895.823 883.156C897.646 883.156 899.222 882.544 900.55 881.32C901.878 880.096 902.907 878.352 903.636 876.086C904.365 873.82 904.729 871.125 904.729 868C904.729 864.849 904.365 862.154 903.636 859.914C902.907 857.648 901.878 855.904 900.55 854.68C899.222 853.456 897.646 852.844 895.823 852.844C893.896 852.844 892.243 853.456 890.862 854.68C889.482 855.904 888.427 857.648 887.698 859.914C886.969 862.154 886.604 864.849 886.604 868C886.604 871.125 886.969 873.82 887.698 876.086C888.427 878.352 889.482 880.096 890.862 881.32C892.243 882.544 893.896 883.156 895.823 883.156Z" fill="white"/>
</g>
<defs>
<clipPath id="clip0_6_43">
<rect width="934" height="954" fill="white"/>
</clipPath>
</defs>
</svg>
